# xmcd
#
# Track frame offsets: 
#        150
#        13479
#        28503
#        39526
#        55982
#        68365
#        79839
#        93644
#        109424
#        122355
#        135737
#        151830
#        166971
#        177555
#        201444
#        215633
#        233805
#        245075
#        258582
#        268175
#
# Disc length: 3790 seconds
#
# Revision: 3
# Processed by: cddbd v1.5.1PL2 Copyright (c) Steve Scherf et al.
# Submitted via: ExactAudioCopy v0.90b4
#
DISCID=270ecc14
DTITLE=The Statler Brothers - A 30th Anniversary Celebration - CD 2
DYEAR=1995
DGENRE=Country
TTITLE0=Charlotte's Web
TTITLE1=Don't Wait On Me
TTITLE2=Years Ago
TTITLE3=We Got Paid By Cash
TTITLE4=Child Of The Fifties
TTITLE5=Oh Baby Mine (I Get So Lonely)
TTITLE6=Guilty
TTITLE7=Elizabeth
TTITLE8=Atlanta Blue
TTITLE9=Hollywood
TTITLE10=One Takes The Blame
TTITLE11=My Only Love
TTITLE12=Hello Mary Lou
TTITLE13=Amazing Grace
TTITLE14=Sweeter And Sweeter
TTITLE15=Too Much On My Heart
TTITLE16=Count On Me
TTITLE17=Forever
TTITLE18=I'll Be The One
TTITLE19=More Like My Daddy Than Me
EXTD=
EXTT0=
EXTT1=
EXTT2=
EXTT3=
EXTT4=
EXTT5=
EXTT6=
EXTT7=
EXTT8=
EXTT9=
EXTT10=
EXTT11=
EXTT12=
EXTT13=
EXTT14=
EXTT15=
EXTT16=
EXTT17=
EXTT18=
EXTT19=
PLAYORDER=
